<svg width="32" height="32" viewBox="0 0 32 32" fill="none" xmlns="http://www.w3.org/2000/svg">
  <path d="M26.6667 4H5.33333C4.59695 4 4 4.59695 4 5.33333V26.6667C4 27.403 4.59695 28 5.33333 28H26.6667C27.403 28 28 27.403 28 26.6667V5.33333C28 4.59695 27.403 4 26.6667 4Z" stroke="#5750F1" stroke-width="2" stroke-linecap="round" stroke-linejoin="round"/>
  <path d="M11.3333 13.3333C12.4379 13.3333 13.3333 12.4379 13.3333 11.3333C13.3333 10.2288 12.4379 9.33333 11.3333 9.33333C10.2288 9.33333 9.33333 10.2288 9.33333 11.3333C9.33333 12.4379 10.2288 13.3333 11.3333 13.3333Z" stroke="#5750F1" stroke-width="2" stroke-linecap="round" stroke-linejoin="round"/>
  <path d="M28 18.6667L21.3333 12L5.33333 28" stroke="#5750F1" stroke-width="2" stroke-linecap="round" stroke-linejoin="round"/>
</svg> 